<?xml version="1.0" encoding="UTF-8" standalone="no"?>
<!-- Created with Inkscape (http://www.inkscape.org/) -->

<svg
   xmlns:dc="http://purl.org/dc/elements/1.1/"
   xmlns:cc="http://creativecommons.org/ns#"
   xmlns:rdf="http://www.w3.org/1999/02/22-rdf-syntax-ns#"
   xmlns:svg="http://www.w3.org/2000/svg"
   xmlns="http://www.w3.org/2000/svg"
   xmlns:sodipodi="http://sodipodi.sourceforge.net/DTD/sodipodi-0.dtd"
   xmlns:inkscape="http://www.inkscape.org/namespaces/inkscape"
   width="64"
   height="64"
   viewBox="0 0 16.933333 16.933334"
   version="1.1"
   id="svg2017"
   inkscape:version="0.92.5 (2060ec1f9f, 2020-04-08)"
   sodipodi:docname="Asteroid.svg">
  <defs
     id="defs2011" />
  <sodipodi:namedview
     id="base"
     pagecolor="#ffffff"
     bordercolor="#666666"
     borderopacity="1.0"
     inkscape:pageopacity="0.0"
     inkscape:pageshadow="2"
     inkscape:zoom="7.9195959"
     inkscape:cx="37.449976"
     inkscape:cy="21.827619"
     inkscape:document-units="px"
     inkscape:current-layer="layer4"
     showgrid="false"
     units="px"
     inkscape:window-width="1848"
     inkscape:window-height="1011"
     inkscape:window-x="72"
     inkscape:window-y="32"
     inkscape:window-maximized="1" />
  <metadata
     id="metadata2014">
    <rdf:RDF>
      <cc:Work
         rdf:about="">
        <dc:format>image/svg+xml</dc:format>
        <dc:type
           rdf:resource="http://purl.org/dc/dcmitype/StillImage" />
        <dc:title></dc:title>
      </cc:Work>
    </rdf:RDF>
  </metadata>
  <g
     inkscape:groupmode="layer"
     id="layer3"
     inkscape:label="Back"
     style="display:inline">
    <path
       style="fill:#0b0b0b;stroke:none;stroke-width:0.26458335px;stroke-linecap:butt;stroke-linejoin:miter;stroke-opacity:1;fill-opacity:1"
       d="m 12.922061,11.074703 c 0.135494,0.123547 0.318093,0.146181 0.472471,0.236235 0.02886,0.01683 0.04046,0.05705 0.07087,0.07087 0.05912,0.02687 0.127755,0.02564 0.188988,0.04725 0.07313,0.02581 0.145622,0.05542 0.212612,0.09449 0.236874,0.138177 -0.198909,0.01941 0.259858,0.141742 0.0538,0.01435 0.110441,0.01447 0.165365,0.02362 0.03961,0.0066 0.07837,0.01794 0.118118,0.02362 0.01559,0.0022 0.0315,0 0.04725,0 0.0315,0 0.063,0 0.09449,0 0.129612,0 0.275464,0.0055 0.401599,-0.02362 0.02767,-0.0064 0.04548,-0.03455 0.07087,-0.04725 0.03793,-0.01897 0.0775,-0.03506 0.118118,-0.04725 0.302091,-0.09063 -2.11e-4,0.03951 0.165364,-0.07087 0.0066,-0.0044 0.0159,0.0015 0.02363,0 0.03184,-0.0064 0.06247,-0.01829 0.09449,-0.02362 0.01553,-0.0026 0.0315,0 0.04725,0 0.0079,0 0.01658,0.0035 0.02362,0 0.01,-0.005 0.01366,-0.01864 0.02362,-0.02363 0.05818,-0.02909 -0.02132,0.06857 0.07087,-0.02362 0.0056,-0.0056 -0.0019,-0.01598 0,-0.02362 0.01208,-0.04832 0.03748,-0.09291 0.04725,-0.141742 0.0031,-0.01544 -0.0038,-0.03197 0,-0.04725 0.0043,-0.01708 0.02073,-0.02988 0.02362,-0.04725 0.0052,-0.03107 0,-0.063 0,-0.09449 0,-0.03937 0,-0.07875 0,-0.118117 0,-0.063 0,-0.125992 0,-0.188988 0,-0.02362 0.0033,-0.04748 0,-0.07087 -0.0046,-0.03214 -0.01726,-0.06266 -0.02362,-0.09449 -0.0094,-0.04697 -0.01685,-0.09432 -0.02363,-0.141741 -0.0011,-0.0078 0.0029,-0.01631 0,-0.02362 -0.01308,-0.0327 -0.03267,-0.06243 -0.04725,-0.09449 -0.02482,-0.05459 -0.04405,-0.111725 -0.07087,-0.165364 C 15.452899,10.11238 15.395356,10.030935 15.355283,9.9407723 15.278263,9.7674771 15.28587,9.762331 15.189918,9.5864196 15.129117,9.4749509 15.059846,9.3681666 15.00093,9.2556904 14.973104,9.2025665 14.95542,9.1446699 14.93006,9.0903258 14.814591,8.842893 14.841308,8.9457643 14.741072,8.6651025 c -0.01092,-0.030576 -0.01726,-0.062657 -0.02363,-0.094494 -0.0015,-0.00772 0.0035,-0.016581 0,-0.023625 -0.005,-0.00996 -0.01745,-0.014359 -0.02362,-0.023622 -0.04475,0.00269 -0.01575,-0.055122 -0.02362,-0.070871 -0.005,-0.00996 -0.01864,-0.013663 -0.02362,-0.023625 -0.0035,-0.00704 0.0035,-0.016582 0,-0.023625 -0.005,-0.00996 -0.01864,-0.013663 -0.02362,-0.023625 -0.0035,-0.00704 0.0025,-0.016153 0,-0.023625 -0.0056,-0.016706 -0.01806,-0.030543 -0.02362,-0.047247 -0.0046,-0.013756 0,-0.1254864 0,-0.141741 0,-0.023625 0.0088,-0.048937 0,-0.07087 -0.01054,-0.026355 -0.03827,-0.043929 -0.04724,-0.070864 -0.0098,-0.02953 0.0066,-0.085307 0,-0.1181177 -0.0098,-0.048835 -0.03517,-0.093425 -0.04725,-0.141741 -0.0019,-0.00764 0.0025,-0.016153 0,-0.023625 -0.01341,-0.040229 -0.0356,-0.077344 -0.04725,-0.1181177 -0.0043,-0.015142 0.0038,-0.031968 0,-0.047247 -0.01273,-0.050917 -0.06057,-0.066632 -0.07087,-0.1181177 -0.0046,-0.023164 0.0088,-0.048936 0,-0.07087 -0.0083,-0.02068 -0.03489,-0.028715 -0.04725,-0.047247 -0.0044,-0.00655 0.0044,-0.017071 0,-0.023625 -0.01235,-0.018531 -0.0315,-0.031498 -0.04725,-0.047247 -0.02362,-0.031496 -0.05,-0.061104 -0.07087,-0.094492 -0.01866,-0.029863 -0.02913,-0.064297 -0.04725,-0.094494 -0.0057,-0.00955 -0.01575,-0.015748 -0.02363,-0.023625 -0.02362,-0.023625 -0.04948,-0.045205 -0.07087,-0.07087 -0.01818,-0.021812 -0.02717,-0.050795 -0.04725,-0.07087 -0.04015,-0.040151 -0.09863,-0.057538 -0.14174,-0.094493 -0.03382,-0.028989 -0.058,-0.068949 -0.09449,-0.094494 -0.04844,-0.081102 -0.146108,-0.054592 -0.212611,-0.094494 -0.0191,-0.011459 -0.02986,-0.033334 -0.04725,-0.047247 -0.146414,-0.117131 -0.0077,0.00273 -0.118118,-0.07087 -0.0093,-0.00618 -0.01436,-0.017447 -0.02362,-0.023625 -0.01465,-0.00977 -0.0335,-0.012623 -0.04725,-0.023625 -0.250541,-0.2004322 0.122151,0.054392 -0.165365,-0.1181175 -0.0095,-0.00573 -0.01575,-0.015748 -0.02363,-0.023625 -0.0315,-0.031495 -0.05971,-0.066664 -0.09449,-0.094491 -0.04434,-0.035472 -0.09901,-0.057102 -0.141741,-0.094494 -0.02137,-0.018696 -0.0315,-0.047247 -0.04725,-0.07087 -0.04725,-0.031498 -0.09553,-0.061489 -0.141741,-0.094494 -0.150549,-0.1075351 -0.21128,-0.1491022 -0.330729,-0.283482 -0.204416,-0.2299684 0.297932,0.2142173 -0.212611,-0.2598587 -0.04964,-0.046093 -0.112938,-0.075223 -0.165365,-0.1181176 -0.03448,-0.028207 -0.06598,-0.060274 -0.09449,-0.094494 -0.07625,-0.0915 0.06033,-0.00753 -0.09449,-0.1181176 -0.02866,-0.020468 -0.06799,-0.024056 -0.09449,-0.047247 -0.03795,-0.033203 -0.06222,-0.079383 -0.09449,-0.1181176 -0.0071,-0.00855 -0.01407,-0.017894 -0.02362,-0.023625 -0.253401,-0.1520404 0.03268,0.056305 -0.141742,-0.1181174 -0.01245,-0.012451 -0.0315,-0.015748 -0.04725,-0.023625 -0.0315,-0.015748 -0.06519,-0.027713 -0.09449,-0.047247 -0.07691,-0.051277 -0.01372,-0.043944 -0.09449,-0.070871 -0.0075,-0.00249 -0.01598,0.00191 -0.02362,0 -0.105423,-0.026355 -0.05216,-0.034808 -0.188988,-0.047247 -0.04705,-0.00428 -0.09473,0.0047 -0.141742,0 -0.03231,-0.00323 -0.0624,-0.018688 -0.09449,-0.023625 C 10.725489,4.567392 10.653693,4.566334 10.583357,4.554611 10.24173,4.497673 10.501407,4.5128 10.181757,4.48374 c -0.02353,-0.00214 -0.04725,0 -0.07087,0 -0.07087,0 -0.1417406,0 -0.2126113,0 -0.2441097,0 -0.4882193,0 -0.7323289,0 -0.07087,0 -0.141741,0 -0.2126115,0 -0.039373,0 -0.078907,0.00356 -0.1181177,0 C 8.7454967,4.4755881 8.5825343,4.4362929 8.5044645,4.412872 8.4090597,4.3842507 8.3165404,4.3464833 8.2209825,4.3183779 8.1824618,4.3070485 8.1412415,4.3065616 8.1028648,4.2947533 8.0385602,4.2749677 7.9773208,4.2462747 7.9138766,4.2238828 7.8434316,4.1990199 7.7688587,4.184821 7.7012651,4.153012 7.634048,4.1213819 7.5776854,4.0701157 7.5122769,4.0348959 7.3953044,3.9719105 7.3787372,3.9978196 7.2524183,3.9404018 c -0.0418,-0.019 -0.077049,-0.050336 -0.1181174,-0.070871 -0.022273,-0.011136 -0.04775,-0.014375 -0.070871,-0.023625 -0.016349,-0.00654 -0.030543,-0.018055 -0.047247,-0.023625 -0.030801,-0.010266 -0.065454,-0.0091 -0.094494,-0.023622 -0.019921,-0.00996 -0.029429,-0.033884 -0.047247,-0.047247 -0.014086,-0.010565 -0.031498,-0.015748 -0.047247,-0.023625 -0.015749,-0.00787 -0.030898,-0.017082 -0.047247,-0.023621 -0.031963,-0.04868 -0.080026,-0.010927 -0.1181177,-0.023625 -0.1080085,-0.036003 0.1000752,-0.018756 -0.070871,-0.047247 -0.031069,-0.00518 -0.063425,0.00518 -0.094494,0 -0.04372,0.017547 -0.043326,-0.040361 -0.07087,-0.047247 -0.022918,-0.00573 -0.047247,0 -0.070871,0 -0.031498,0 -0.062996,0 -0.094494,0 -0.055121,0 -0.1111321,-0.00986 -0.1653646,0 -0.048999,0.00891 -0.092439,0.040204 -0.1417409,0.047247 -0.062363,0.00891 -0.1262508,-0.0057 -0.1889882,0 -0.024799,0.00225 -0.046161,0.020534 -0.07087,0.023622 -0.039068,0.00488 -0.078986,-0.00435 -0.1181174,0 -0.064538,0.00717 -0.1253144,0.034512 -0.1889882,0.047247 -0.00772,0.00153 -0.015748,0 -0.023625,0 -0.028031,0 -0.1660609,-0.00459 -0.1889881,0 -0.017267,0.00345 -0.031498,0.015748 -0.047247,0.023625 -0.015748,0.00787 -0.031498,0.015748 -0.047247,0.023625 -0.015748,0.00787 -0.030543,0.018055 -0.047247,0.023625 -0.00747,0.00249 -0.017071,-0.00437 -0.023625,0 -0.018531,0.012353 -0.031498,0.031498 -0.047247,0.047247 -0.015748,0.015748 -0.031498,0.031498 -0.047247,0.047247 -0.023625,0.023625 -0.050825,0.044144 -0.070871,0.07087 -0.00188,0.00249 -0.093864,0.1411108 -0.094494,0.141741 -0.012451,0.012451 -0.032596,0.013856 -0.047247,0.023625 -0.00927,0.00618 -0.015748,0.015748 -0.023625,0.023625 -0.015748,0.00787 -0.032148,0.014565 -0.047247,0.023622 -0.048221,0.00354 -0.0831,0.071149 -0.1181177,0.094494 -0.00655,0.00437 -0.016581,-0.00352 -0.023625,0 -0.025395,0.012697 -0.045476,0.03455 -0.070871,0.047247 -0.022273,0.011136 -0.048598,0.012488 -0.070871,0.023625 -0.036083,0.018042 -0.1171588,0.081244 -0.141741,0.1181177 -0.00437,0.00655 0.00557,0.018055 0,0.023625 -0.00557,0.00557 -0.018055,-0.00557 -0.023625,0 -9.525e-4,9.525e-4 0,0.085819 0,0.094494 0,0.015748 0,0.031498 0,0.047247 0,0.00787 -0.00352,0.016582 0,0.023625 0.00996,0.01992 0.040204,0.026117 0.047247,0.047247 0.00498,0.014941 -0.00498,0.032306 0,0.047247 0.015888,0.047665 0.047255,1.61e-5 0.07087,0.047247 0.00352,0.00704 -0.00352,0.016581 0,0.023625 0.00498,0.00996 0.018643,0.013663 0.023625,0.023625 0.00352,0.00704 -0.00352,0.016581 0,0.023625 0.00498,0.00996 0.018642,0.013663 0.023625,0.023625 0.00704,0.014086 -0.00704,0.033161 0,0.047247 0.00996,0.019921 0.034893,0.028715 0.047247,0.047247 0.00977,0.01465 0.015748,0.031498 0.023625,0.047247 0.015748,0.031498 0.031498,0.062996 0.047247,0.094494 0.00787,0.015748 0.019354,0.030165 0.023625,0.047247 0.00955,0.038197 -0.00647,0.079281 0,0.1181176 0.00409,0.024564 0.01874,0.046453 0.023625,0.07087 0.00518,0.025911 0,0.1090078 0,0.141741 0,0.055122 0,0.1102432 0,0.1653646 0,0.027088 0.00612,0.070023 0,0.094494 -0.00427,0.017082 -0.018055,0.030543 -0.023625,0.047247 -0.00837,0.025104 0.00837,0.069392 0,0.094494 -0.00557,0.016703 -0.018055,0.030542 -0.023625,0.047247 -0.00498,0.014941 0.00704,0.033161 0,0.047247 -0.0068,0.013613 -0.039453,0.023503 -0.023625,0.047247 0.018531,0.027798 0.052339,0.043073 0.07087,0.07087 0.00977,0.01465 0.013856,0.032596 0.023625,0.047247 0.014338,0.021505 0.060402,0.049932 0.07087,0.070871 0.00352,0.00704 -0.00557,0.018055 0,0.023625 0.00557,0.00557 0.016582,-0.00352 0.023625,0 0.028348,0.014174 0.042522,0.056697 0.07087,0.07087 0.00704,0.00352 0.016581,-0.00352 0.023625,0 0.01992,0.00996 0.027326,0.037287 0.047247,0.047247 0.00704,0.00352 0.016582,-0.00352 0.023625,0 0.019921,0.00996 0.028715,0.034892 0.047247,0.047247 0.1104056,0.073604 -0.028296,-0.04626 0.1181177,0.070871 0.017391,0.013914 0.026568,0.038975 0.047247,0.047247 0.021934,0.00877 0.047706,-0.00463 0.070871,0 0.025942,0.00519 0.1078947,0.064055 0.1181174,0.07087 0.023625,0.015748 0.046525,0.03264 0.07087,0.047247 0.0151,0.00906 0.033161,0.01306 0.047247,0.023625 0.049201,0.036901 0.089588,0.085522 0.141741,0.1181177 0.074657,0.046661 0.1584267,0.076925 0.2362351,0.1181174 0.056108,0.029704 0.1094669,0.064395 0.1653646,0.094494 0.04651,0.025043 0.097789,0.041569 0.141741,0.07087 0.074704,0.049803 0.1407853,0.1114949 0.2126118,0.1653646 0.054191,0.040643 0.1105815,0.078275 0.1653646,0.1181177 0.031842,0.023156 0.060076,0.05175 0.094494,0.07087 0.3193079,0.1773933 -0.1678009,-0.1740353 0.3543525,0.1653645 0.084551,0.054958 0.1533231,0.1315874 0.2362353,0.1889882 0.020474,0.014174 0.048598,0.012488 0.07087,0.023625 0.072514,0.036257 0.1427319,0.077012 0.2126115,0.1181176 0.064031,0.037666 0.1279091,0.075832 0.1889882,0.1181177 0.041456,0.0287 0.079383,0.062215 0.1181177,0.094494 0.00855,0.00713 0.014073,0.017894 0.023625,0.023625 0.030197,0.018119 0.067756,0.024328 0.094494,0.047247 0.029894,0.025622 0.04124,0.068567 0.07087,0.094494 0.034555,0.030236 0.079913,0.045401 0.1181177,0.070871 0.00927,0.00618 0.013663,0.018642 0.023625,0.023625 0.022273,0.011136 0.04925,0.011269 0.070871,0.023625 0.034185,0.019534 0.063749,0.046275 0.094494,0.07087 0.041997,0.033598 0.031498,0.056696 0.094494,0.094494 0.051424,0.030855 0.1154663,0.037605 0.1653646,0.07087 0.092659,0.061773 0.1471454,0.1694178 0.2362354,0.2362351 0.053014,0.039761 0.5332947,0.334151 0.5669642,0.3543528 0.093806,0.056284 0.1891898,0.1098986 0.283482,0.1653646 0.039577,0.023281 0.081724,0.042875 0.1181177,0.07087 0.2060615,0.1585089 0.1395973,0.160741 0.3543528,0.2598586 0.045218,0.02087 0.095965,0.027629 0.1417411,0.047247 0.01024,0.00439 0.01471,0.016941 0.02362,0.023622 0.02271,0.017036 0.04652,0.03264 0.07087,0.047247 0.0302,0.018119 0.063,0.031498 0.09449,0.047247 0.01575,0.00787 0.0309,0.017084 0.04725,0.023625 0.02312,0.00925 0.05015,0.00981 0.07087,0.023625 0.0278,0.018531 0.04725,0.047247 0.07087,0.07087 0.0444,0.0444 0.02672,0.0317 0.118118,0.07087 0.0394,0.01689 0.127902,0.03975 0.165364,0.04725 0.0077,0.0015 0.01598,-0.0019 0.02363,0 0.07845,0.01961 0.07699,0.0362 0.165365,0.04725 0.03125,0.0039 0.06342,-0.0052 0.09449,0 0.0012,2.04e-4 0.09053,0.04566 0.09449,0.04725 0.02312,0.0092 0.04725,0.01575 0.07087,0.02363 0.02363,0.01575 0.04548,0.03455 0.07087,0.04725 0.007,0.0035 0.01598,-0.0019 0.02362,0 0.02416,0.006 0.04775,0.01437 0.07087,0.02363 0.01635,0.0065 0.03017,0.01935 0.04725,0.02362 0.01528,0.0038 0.03197,-0.0038 0.04725,0 0.01708,0.0043 0.03017,0.01935 0.04725,0.02362 0.03056,0.0076 0.06461,-0.01 0.0945,0 0.01056,0.0035 0.01306,0.0201 0.02362,0.02362 0.01382,0.0046 0.121464,0 0.141741,0 0.01064,0 0.06368,-0.0036 0.07087,0 0.01,0.005 0.01366,0.01864 0.02362,0.02363 0.007,0.0035 0.01806,-0.0056 0.02362,0 0.01245,0.01245 0.01306,0.03316 0.02363,0.04725 0.01336,0.01782 0.03489,0.02872 0.04725,0.04725 0.0044,0.0066 -0.0056,0.01806 0,0.02362 0.0056,0.0056 0.01806,-0.0056 0.02362,0 0.0056,0.0056 -0.0056,0.01805 0,0.02362 0.0056,0.0056 0.01658,-0.0035 0.02362,0 0.01,0.005 0.01575,0.01575 0.02362,0.02362 0.0079,0.0079 0.01745,0.01436 0.02362,0.02363 0.0098,0.01465 0.01117,0.0348 0.02363,0.04725 0.0056,0.0056 0.01806,-0.0056 0.02362,0 0.0249,0.0249 0.02612,0.06632 0.04725,0.09449 0.02468,0.03291 0.06469,0.06469 0.09449,0.09449 0.02362,0.02362 0.04725,0.04725 0.07087,0.07087 0.0079,0.0079 0.01436,0.01745 0.02362,0.02362 0.01465,0.0098 0.0348,0.01117 0.04725,0.02362 0.0056,0.0056 -0.0056,0.01806 0,0.02363 0.01245,0.01245 0.0315,0.01575 0.04725,0.02362 0.04725,0.02362 0.09269,0.05125 0.141741,0.07087 0.0073,0.0029 0.01615,-0.0025 0.02363,0 0.0167,0.0056 0.0315,0.01575 0.04725,0.02362 0.01575,0.0079 0.03316,0.01306 0.04725,0.02362 0.01782,0.01336 0.02872,0.03489 0.04725,0.04725 0.0066,0.0044 0.01575,0 0.02362,0 0.0079,0 0.01575,0 0.02362,0 0.02225,0 0.104679,-0.0045 0.118118,0 0.01056,0.0035 0.01366,0.01864 0.02362,0.02362 0.01409,0.007 0.04725,-0.01575 0.04725,0 0,0.0079 -0.01575,0 -0.02362,0 -0.0554,0 0.01114,0.0056 -0.04725,-0.02362 -0.01409,-0.007 -0.05107,0.01528 -0.04725,0 0.0085,-0.03416 0.0315,-0.063 0.04725,-0.09449 z"
       id="path2617"
       inkscape:connector-curvature="0" />
  </g>
  <g
     inkscape:groupmode="layer"
     id="layer2"
     inkscape:label="Middle">
    <path
       style="fill:#151515;stroke:none;stroke-width:0.26458335px;stroke-linecap:butt;stroke-linejoin:miter;stroke-opacity:1;fill-opacity:1"
       d="M 6.401972,10.153386 C 6.2363936,10.057967 6.1172364,9.8960077 5.9531251,9.7990329 5.8649932,9.746955 5.7574234,9.7335837 5.6696429,9.6809155 5.6358813,9.6606585 5.6306145,9.6095791 5.5987724,9.5864214 5.5418118,9.5449953 5.4727804,9.5234254 5.4097845,9.4919273 5.3310394,9.4525547 5.2476063,9.4214177 5.1735491,9.3738096 5.1360791,9.3497217 5.1161189,9.3040247 5.0790553,9.2793156 5.0204525,9.2402472 4.9510205,9.2201105 4.8900671,9.1848217 4.8012129,9.1333799 4.7175061,9.0734983 4.6302084,9.0194571 4.5521273,8.9711209 4.4694767,8.9299875 4.3939734,8.8777159 4.1472161,8.7068839 4.6331572,8.9312604 4.1341147,8.6651044 4.0835319,8.6381269 4.0155845,8.6509169 3.9687501,8.6178572 3.8777707,8.5536365 3.8044486,8.4666346 3.732515,8.3816221 3.7164302,8.3626129 3.716766,8.3343752 3.7088914,8.3107516 3.6773936,8.2713792 3.6500507,8.2282873 3.6143973,8.1926342 3.6019468,8.1801834 3.5828995,8.1768852 3.5671504,8.1690106 3.5199032,8.1060147 3.478379,8.038289 3.4254094,7.9800224 3.3989244,7.9508892 3.3550877,7.9402307 3.3309153,7.9091519 3.2984846,7.8674555 3.2893461,7.811363 3.2600448,7.7674109 3.2259297,7.7162381 3.1735695,7.6784072 3.1419272,7.6256697 3.1252214,7.5978292 3.1303622,7.5613209 3.1183025,7.5311759 3.0986837,7.48213 3.0626109,7.4400306 3.047432,7.3894346 c -0.00905,-0.03017 0,-0.062996 0,-0.094494 0,-0.029357 -0.00469,-0.137223 0,-0.1653646 C 3.056422,7.075668 3.126408,6.9386895 3.141926,6.9169645 3.15216,6.9026375 3.178939,6.9076745 3.189173,6.8933395 3.219876,6.8503555 3.228349,6.7938575 3.260044,6.7515985 3.4514433,6.4963994 3.4634525,6.5284992 3.7088906,6.3499988 c 0.00901,-0.00655 0.014928,-0.016666 0.023625,-0.023625 0.1581354,-0.1265082 0.043141,-0.010274 0.141741,-0.141741 0.00668,-0.00891 0.018643,-0.013663 0.023625,-0.023625 0.00352,-0.00704 0,-0.015748 0,-0.023625 0,-0.00787 0.00557,-0.018055 0,-0.023625 -0.012452,-0.01245 -0.034797,-0.011172 -0.047248,-0.023623 C 3.8305569,6.0700662 3.8218627,6.0408276 3.8033855,6.019271 3.7454066,5.9516289 3.6714315,5.8987236 3.6143973,5.8302828 3.6031261,5.8167573 3.6001072,5.7979674 3.5907727,5.7830359 3.5340685,5.6923092 3.4393786,5.5594087 3.3781609,5.47593 3.331594,5.4124298 3.2862844,5.3478873 3.2364199,5.2869421 3.2152638,5.2610844 3.1817739,5.2452761 3.1655494,5.2160716 3.1413639,5.172536 3.1421497,5.118052 3.1183023,5.0743304 3.094159,5.0300656 3.051777,4.9981661 3.0238082,4.956213 c -0.00437,-0.00655 0.00153,-0.015902 0,-0.023625 -0.00637,-0.031837 -0.0091,-0.065454 -0.023625,-0.094494 -0.00996,-0.01992 -0.038975,-0.026568 -0.047247,-0.047247 -0.0023,-0.00575 0,-0.1236752 0,-0.1417412 0,-0.022177 -0.00451,-0.1045814 0,-0.1181175 0.00352,-0.010565 0.015748,-0.015748 0.023625,-0.023625 0.090239,-0.090239 -0.00127,-0.00868 0.141741,-0.094494 0.00955,-0.00573 0.01306,-0.020103 0.023625,-0.023625 0.038092,-0.012697 0.080026,-0.010927 0.1181177,-0.023625 0.056893,-0.018965 0.1071846,-0.056325 0.1653646,-0.07087 0.038197,-0.00955 0.079141,0.00557 0.1181174,0 0.07187,-0.010266 0.1402853,-0.040958 0.2126118,-0.047247 0.1098285,-0.00955 0.220486,0 0.3307291,0 0.08662,0 0.1732392,0 0.2598585,0 0.047247,0 0.094707,-0.00448 0.1417412,0 0.118626,0.011298 0.2355154,0.038444 0.3543525,0.047247 0.094236,0.00698 0.1894139,-0.00896 0.2834823,0 0.1351838,-0.1393219 0.1706245,0.060956 0.2598587,0.07087 0.054784,0.00609 0.1109929,-0.00906 0.1653645,0 0.041829,0.00697 0.076978,0.036962 0.1181175,0.047247 0.022918,0.00573 0.047706,-0.00463 0.070871,0 0.017267,0.00345 0.030165,0.019352 0.047247,0.023625 0.01528,0.00382 0.032306,-0.00498 0.047247,0 0.010565,0.00352 0.014356,0.017447 0.023625,0.023625 0.01465,0.00977 0.030543,0.018055 0.047247,0.023625 0.059649,0.019883 -0.024604,-0.047981 0.07087,0.023625 0.017817,0.013364 0.029429,0.033884 0.047247,0.047247 0.014086,0.010565 0.033161,0.01306 0.047247,0.023625 0.1767469,0.1325605 -0.1502813,-0.067715 0.141741,0.1181177 0.053561,0.034084 0.1109255,0.06183 0.1653645,0.094494 0.024347,0.014608 0.046052,0.033459 0.07087,0.047247 0.070392,0.039107 0.2598002,0.1311018 0.3307292,0.141741 0.093449,0.014018 0.1896354,-0.011041 0.2834823,0 0.042115,0.00496 0.076138,0.04125 0.1181174,0.047247 0.070158,0.010022 0.1417413,0 0.2126118,0 0.1023683,0 0.2047369,0 0.3071055,0 0.125992,0 0.2519842,0 0.3779761,0 0.062996,0 0.1259922,0 0.1889882,0 0.015748,0 0.032306,-0.00498 0.047247,0 0.050376,0.016793 0.056037,0.032413 0.094494,0.07087 0.023625,0.023625 0.047247,0.047247 0.070871,0.07087 0.015748,0.015748 0.029429,0.033884 0.047247,0.047247 0.014086,0.010565 0.031498,0.015748 0.047247,0.023625 0.023625,0.015748 0.0487,0.029511 0.070871,0.047247 0.073242,0.058594 0.021169,0.04602 0.1181174,0.094494 0.00704,0.00352 0.015748,0 0.023625,0 0.023625,0.00787 0.049518,0.010811 0.07087,0.023625 0.019098,0.011459 0.025638,0.041845 0.047247,0.047247 0.050622,0.054371 0.1109933,-0.00906 0.1653646,0 0.039606,0.0066 0.07813,0.019989 0.1181177,0.023625 0.06855,0.00623 0.2069976,0 0.2834823,0 0.1156274,0 0.167355,-0.010816 0.283482,0.047247 0.029882,0.014941 0.043073,0.052339 0.07087,0.07087 0.147705,0.09847 -0.012814,-0.077613 0.1653646,0.07087 0.015071,0.01256 0.042214,0.0773 0.070871,0.094494 0.0302,0.018119 0.06463,0.028583 0.09449,0.047247 0.03339,0.020868 0.06173,0.049031 0.09449,0.070871 0.01465,0.00977 0.0315,0.015748 0.04725,0.023625 0.0315,0.015748 0.0618,0.034168 0.09449,0.047247 0.02312,0.00925 0.04671,0.017584 0.07087,0.023625 0.0076,0.00191 0.01575,0 0.02362,0 0.02362,0 0.04725,0 0.07087,0 0.063,0 0.125992,0 0.188988,0 0.01575,0 0.0318,-0.00309 0.04725,0 0.02442,0.00488 0.04725,0.015748 0.07087,0.023625 0.05512,0 0.110669,-0.00684 0.165365,0 0.07204,0.009 0.140742,0.03698 0.212611,0.047247 0.297906,0.042558 -0.09637,-0.065754 0.283482,0.023625 0.339298,0.079835 0.132741,0.030935 0.354353,0.1417413 0.02227,0.011136 0.05174,0.00768 0.07087,0.023625 0.03025,0.025207 0.04098,0.068871 0.07087,0.094494 0.02674,0.022918 0.06463,0.028583 0.09449,0.047247 0.03339,0.020868 0.06375,0.046275 0.09449,0.07087 0.0087,0.00696 0.01366,0.018642 0.02363,0.023625 0.02227,0.011136 0.05326,0.00602 0.07087,0.023625 0.01761,0.017608 0.01249,0.048598 0.02363,0.07087 0.005,0.00996 0.01745,0.014356 0.02362,0.023625 0.0098,0.01465 0.01457,0.032148 0.02362,0.047247 0.01461,0.024347 0.03455,0.045476 0.04725,0.070871 0.08978,0.1795627 0.0035,0.013959 0.02362,0.094494 0.006,0.024159 0.01678,0.046927 0.02362,0.070871 0.0056,0.019656 0.0318,0.1396185 0.04725,0.1653646 0.01146,0.019098 0.03847,0.026775 0.04725,0.047247 0.01582,0.036906 0.01491,0.078921 0.02362,0.1181177 0.01408,0.063336 0.02872,0.1363059 0.07087,0.1889879 0.011,0.01375 0.0348,0.011173 0.04725,0.023625 0.02784,0.02784 0.04471,0.065067 0.07087,0.094494 0.05919,0.066587 0.125992,0.125992 0.188988,0.1889882 0.03937,0.039372 0.07875,0.078745 0.118118,0.1181174 0.05512,0.055122 0.106456,0.1143103 0.165364,0.1653646 0.05951,0.051573 0.128495,0.09133 0.188989,0.141741 0.03422,0.028517 0.05886,0.067767 0.09449,0.094494 0.627637,0.4707276 -0.235928,-0.2372204 0.354353,0.2598586 0.326323,0.2747979 0.191841,0.1445938 0.354353,0.3071056 0.03937,0.039373 0.08537,0.073086 0.118117,0.1181177 0.07874,0.1082744 0.0525,0.1378037 0.118118,0.2362351 0.01235,0.018531 0.03579,0.028149 0.04725,0.047247 0.01281,0.021352 0.01575,0.047247 0.02362,0.07087 0.0079,0.023622 0.01575,0.047247 0.02362,0.07087 0.0079,0.023625 0.01249,0.048598 0.02363,0.07087 0.005,0.00996 0.02144,0.012703 0.02362,0.023625 0.0062,0.030886 -0.0045,0.063313 0,0.094494 0.0035,0.024651 0.01758,0.046712 0.02363,0.07087 0.0019,0.00764 -0.0019,0.015984 0,0.023622 0.006,0.024159 0.01953,0.046308 0.02362,0.070871 0.01036,0.062139 -0.0089,0.1266251 0,0.1889879 0.0025,0.017431 0.01575,0.031498 0.02362,0.047247 0,0.047247 -0.0062,0.094908 0,0.1417404 0.0096,0.07196 0.03463,0.141118 0.04725,0.212612 0.01103,0.06252 0.0069,0.127739 0.02362,0.188988 0.0075,0.02739 0.03827,0.04394 0.04725,0.07087 0.01515,0.04544 0.01506,0.09461 0.02362,0.141741 0.0072,0.0395 0.02055,0.07808 0.02362,0.118117 0.0067,0.08686 0,0.23563 0,0.330729 0,0.07087 0,0.141742 0,0.212612 0,0.02362 0.0029,0.04743 0,0.07087 -0.005,0.03984 -0.01794,0.07837 -0.02362,0.118117 -0.0022,0.01559 0.0031,0.0318 0,0.04725 -0.0049,0.02442 -0.01575,0.04725 -0.02362,0.07087 -0.0079,0.02362 -0.01249,0.0486 -0.02363,0.07087 -0.111412,0.222826 -0.0044,-0.0052 -0.07087,0.09449 -0.063,0.09449 0.02362,0.0079 -0.07087,0.07087 -0.01853,0.01235 -0.02733,0.03729 -0.04725,0.04725 -0.007,0.0035 -0.01615,-0.0025 -0.02362,0 -0.01671,0.0056 -0.03054,0.01806 -0.04725,0.02362 -0.02241,0.0075 -0.04795,-0.0057 -0.07087,0 -0.01708,0.0043 -0.02988,0.02073 -0.04725,0.02363 -0.02179,0.0036 -0.247405,0.0011 -0.259858,0 -0.0477,-0.0043 -0.09394,-0.02064 -0.141741,-0.02363 -0.110029,-0.0069 -0.220487,0 -0.33073,0 -0.307106,0 -0.614211,0 -0.921317,0 -0.156667,-0.02239 -0.19642,-0.02229 -0.354328,-0.07088 -0.04053,-0.01247 -0.07833,-0.03259 -0.118118,-0.04725 -0.109845,-0.04047 -0.220991,-0.07736 -0.330729,-0.118118 -0.165884,-0.06161 -0.32979,-0.128514 -0.496094,-0.188988 -0.192587,-0.07003 -0.820793,-0.263488 -0.897693,-0.283482 -0.186834,-0.04858 -0.377884,-0.07919 -0.5669643,-0.118118 -0.078655,-0.01619 -0.1565142,-0.03758 -0.2362352,-0.04725 -0.3609521,-0.04375 -0.7262769,-0.04644 -1.0866815,-0.09449 -0.1745347,-0.02327 -0.3448441,-0.07392 -0.5197173,-0.09449 -0.093847,-0.01104 -0.189212,0.0065 -0.2834821,0 -0.1344704,-0.0093 -0.2670175,-0.03977 -0.4015997,-0.04725 -0.1493853,-0.0083 -0.2992312,0 -0.4488468,0 -0.055122,0 -0.1104694,0.005 -0.1653646,0 -0.1186735,-0.01079 -0.2354722,-0.03905 -0.3543526,-0.04725 -0.1099819,-0.0076 -0.2206559,0.0061 -0.3307292,0 -0.042843,-0.0024 -0.2170349,-0.06447 -0.2362351,-0.07087 -0.023624,-0.0079 -0.047247,-0.01575 -0.070871,-0.02362 -0.00787,-0.0079 -0.013663,-0.01864 -0.023624,-0.02362 -0.00704,-0.0035 -0.018055,0.0056 -0.023623,0 -0.00557,-0.0056 -0.00557,-0.01806 0,-0.02362 0.00557,-0.0056 0.018055,0.0056 0.023623,0 0.00557,-0.0056 -0.00557,-0.01805 0,-0.02362 0.012451,-0.01245 0.034796,-0.01117 0.047247,-0.02362 0.00557,-0.0056 -0.00472,-0.01732 0,-0.02362 0.020045,-0.02673 0.047247,-0.04725 0.070871,-0.07087 0.00787,-0.0079 0.015749,-0.01575 0.023623,-0.02362 0.00787,-0.0079 0.013059,-0.0201 0.023624,-0.02362 0.014941,-0.005 0.031498,0 0.047247,0 0.00787,0 0.01658,0.0035 0.023623,0 0.019921,-0.01 0.027326,-0.03729 0.047247,-0.04725 0.014086,-0.007 0.036111,0.01114 0.047247,0 0.00557,-0.0056 -0.00557,-0.01806 0,-0.02362 0.011136,-0.01114 0.036111,0.01114 0.047247,0 0.00557,-0.0056 -0.00352,-0.01658 0,-0.02362 0.00203,-0.0041 0.067936,-0.06989 0.070871,-0.07087 0.014941,-0.005 0.033161,0.007 0.047247,0 0.00704,-0.0035 -0.00557,-0.01806 0,-0.02362 0.089001,-0.089 0.019532,0.08724 0.070871,-0.118117 z"
       id="path2615"
       inkscape:connector-curvature="0" />
  </g>
  <g
     inkscape:label="Front"
     inkscape:groupmode="layer"
     id="layer1"
     transform="translate(0,-280.06666)"
     style="display:inline">
    <path
       style="fill:#232323;fill-opacity:1;stroke:none;stroke-width:0.26458335px;stroke-linecap:butt;stroke-linejoin:miter;stroke-opacity:1"
       d="m 14.788319,292.25167 c 0.03594,0.0995 0.02362,0.20347 0.02362,0.3071 0,0.0236 0.0062,0.0481 0,0.0709 -0.05609,0.20565 -0.04724,0.14699 -0.141741,0.28349 -0.171382,0.24755 -0.120986,0.21548 -0.354352,0.44884 -0.07266,0.0727 -0.364305,0.22843 -0.377976,0.23624 -0.07039,0.0402 -0.136091,0.0913 -0.212612,0.11812 -0.0831,0.0291 -0.173327,0.031 -0.259859,0.0472 -0.03946,0.007 -0.07886,0.0152 -0.118117,0.0236 -0.07099,0.0152 -0.140373,0.04 -0.212612,0.0472 -0.08619,0.009 -0.173239,0 -0.259859,0 h -0.283482 -0.354352 -0.0945 -0.04725 c -0.0079,0 -0.0201,-0.007 -0.02363,0 -0.007,0.0141 0,0.0315 0,0.0473 0,0.0725 0.0057,0.19116 0,0.25986 -0.01827,0.21921 -1.47e-4,0.11832 -0.118118,0.28348 -0.01023,0.0143 -0.01457,0.0322 -0.02362,0.0473 -0.01531,0.0255 -0.104784,0.15647 -0.118118,0.16536 -0.04144,0.0276 -0.0955,0.0288 -0.141741,0.0473 -0.222002,0.0888 0.06955,0.0238 -0.307105,0.0709 -0.461235,0.0577 -0.216141,0.0472 -0.590588,0.0472 H 9.591131 c -0.1811136,0 -0.3625397,-0.0106 -0.5433407,0 -0.1345573,0.008 -0.2670725,0.0388 -0.4015996,0.0473 -0.1178878,0.007 -0.2362354,0 -0.3543528,0 H 7.4413914 7.0634153 c -0.055122,0 -0.1107268,0.007 -0.1653646,0 -0.064365,-0.009 -0.1254461,-0.0339 -0.1889882,-0.0473 -0.1517851,-0.032 -0.3096352,-0.0422 -0.4488458,-0.11812 -0.04985,-0.0272 -0.092103,-0.0669 -0.141741,-0.0945 -0.021767,-0.0121 -0.051215,-0.008 -0.07087,-0.0236 -0.052742,-0.041 -0.092076,-0.097 -0.141741,-0.14174 -0.058531,-0.0527 -0.1333071,-0.0861 -0.1889881,-0.14174 -0.020076,-0.0201 -0.027171,-0.0508 -0.047247,-0.0709 -0.02784,-0.0278 -0.064863,-0.0449 -0.094494,-0.0709 -0.131513,-0.11508 -0.1007579,-0.12091 -0.2362354,-0.28348 -0.028517,-0.0342 -0.067767,-0.0589 -0.094494,-0.0945 -0.044573,-0.0594 -0.083518,-0.12325 -0.1181177,-0.18899 -0.091475,-0.1738 -0.106217,-0.27323 -0.2126115,-0.42522 -0.019159,-0.0274 -0.048871,-0.0457 -0.070871,-0.0709 -0.033203,-0.0379 -0.061291,-0.0802 -0.094494,-0.11812 -0.022,-0.0251 -0.051452,-0.0437 -0.070871,-0.0709 -0.020469,-0.0286 -0.027713,-0.0652 -0.047247,-0.0945 -0.012353,-0.0185 -0.034892,-0.0287 -0.047247,-0.0472 -0.019534,-0.0293 -0.031498,-0.063 -0.047247,-0.0945 -0.023625,-0.0473 -0.044662,-0.0959 -0.07087,-0.14174 -0.045561,-0.0797 -0.094494,-0.15749 -0.141741,-0.23624 -0.023625,-0.0394 -0.050337,-0.077 -0.070871,-0.11812 -0.011136,-0.0223 -0.014375,-0.0478 -0.023625,-0.0709 -0.022273,-0.0557 -0.046833,-0.11042 -0.070871,-0.16536 -0.031085,-0.071 -0.07136,-0.13859 -0.094493,-0.21261 -0.016608,-0.0532 -0.011544,-0.11101 -0.023625,-0.16537 -0.00382,-0.0172 -0.016338,-0.0312 -0.023625,-0.0472 -0.032092,-0.0706 -0.05981,-0.14325 -0.094494,-0.21262 -0.036589,-0.0732 -0.3021555,-0.53443 -0.3071059,-0.54334 -0.017896,-0.0322 -0.1109588,-0.22728 -0.1181174,-0.23623 -0.00459,-0.11044 -0.117466,-0.0702 -0.1653646,-0.11812 -0.020077,-0.0201 -0.027171,-0.0508 -0.047247,-0.0709 -0.012451,-0.0125 -0.031498,-0.0158 -0.047247,-0.0236 -0.031498,-0.0158 -0.064297,-0.0291 -0.094494,-0.0473 -0.067572,-0.0405 0.03614,-0.0116 -0.070871,-0.0473 -0.029327,-0.01 -0.025739,0.0194 -0.047247,-0.0236 -0.00548,-0.011 0.00306,-0.0998 0,-0.11812 -0.00534,-0.032 -0.020037,-0.0622 -0.023625,-0.0945 -0.00435,-0.0391 0,-0.0788 0,-0.11812 v -0.16537 -0.0709 c 0,-0.0236 -0.00463,-0.0477 0,-0.0709 0.00345,-0.0173 0.019354,-0.0302 0.023625,-0.0472 0.00382,-0.0153 0,-0.0315 0,-0.0473 v -0.14174 -0.11812 c 0,-0.008 -0.0019,-0.016 0,-0.0236 0.00604,-0.0242 0.020103,-0.0462 0.023625,-0.0709 0.00446,-0.0312 0,-0.063 0,-0.0945 v -0.11811 c 0,-0.0236 -0.00463,-0.0477 0,-0.0709 0.011242,-0.0562 0.034811,-0.10941 0.047247,-0.16537 0.00342,-0.0154 0,-0.0315 0,-0.0473 v -0.21261 c 0,-0.063 0.00736,-0.12642 0,-0.18898 -0.017187,-0.1461 -0.071949,-0.28672 -0.1181177,-0.42523 -0.033805,-0.10141 -0.042355,-0.14933 -0.094494,-0.23623 -0.00573,-0.01 -0.015748,-0.0158 -0.023625,-0.0236 -0.023625,-0.0236 -0.051452,-0.0437 -0.070871,-0.0709 -0.020468,-0.0287 -0.027713,-0.0652 -0.047247,-0.0945 -0.012353,-0.0185 -0.031498,-0.0315 -0.047247,-0.0473 -0.00787,-0.008 -0.014714,-0.0169 -0.023625,-0.0236 -0.02271,-0.017 -0.048697,-0.0295 -0.070867,-0.0473 -0.017392,-0.0139 -0.031498,-0.0315 -0.047247,-0.0472 -0.039373,-0.0394 -0.078745,-0.0787 -0.1181176,-0.11812 -0.015749,-0.0157 -0.031498,-0.0315 -0.047247,-0.0472 0,-0.008 0.00352,-0.0166 0,-0.0236 -0.00498,-0.01 -0.023624,-0.0125 -0.023624,-0.0236 0,-0.008 0.018303,0.006 0.023624,0 l 0.1299288,-0.14174 c 0.1967808,-0.23616 0.4185256,-0.15575 0.4744657,-0.28491 0.073545,-0.16982 0.2172957,-0.0281 0.411416,0.13133 0.08662,0 0.5760173,-0.026 0.4724703,0.21852 0.059154,0.01 -0.2754106,0.11096 -0.047247,0.1713 0.014941,0.005 0.032624,-0.006 0.047247,0 0.026361,0.0106 0.044774,0.0361 0.070871,0.0473 0.029842,0.0128 0.065454,0.009 0.094494,0.0236 0.035216,0.0176 0.061734,0.049 0.094494,0.0709 0.083165,0.0554 0.015629,-0.017 0.1181177,0.0709 0.033821,0.029 0.061384,0.0647 0.094494,0.0945 0.045714,0.0411 0.101242,0.0718 0.1417413,0.11812 0.016399,0.0187 0.012488,0.0486 0.023625,0.0709 0.028392,0.0568 0.062996,0.11024 0.094494,0.16536 0.031498,0.0945 0.052082,0.19336 0.094494,0.28349 0.096385,0.20481 0.075448,0.0398 0.141741,0.18898 0.061252,0.13782 0.027837,0.15451 0.1181176,0.28349 0.025546,0.0365 0.065977,0.0603 0.094494,0.0945 0.011271,0.0135 0.015748,0.0315 0.023625,0.0473 0.015748,0.0315 0.024058,0.068 0.047247,0.0945 0.033203,0.0379 0.079383,0.0622 0.1181177,0.0945 0.066441,0.0554 -0.02953,0.0148 0.1181174,0.11811 0.043275,0.0303 0.094494,0.0473 0.141741,0.0709 l 0.1889882,0.0945 c 0.1125193,0.0563 0.190347,0.10192 0.3307291,0.11811 0.1251617,0.0145 0.2519842,0 0.3779764,0 h 0.3071056 0.1653646 c 0.094494,0 0.189289,0.008 0.283482,0 0.074489,-0.006 0.4768998,-0.0752 0.5669645,-0.0945 0.02435,-0.005 0.046927,-0.0168 0.07087,-0.0236 0.031218,-0.009 0.065454,-0.009 0.094494,-0.0236 0.035216,-0.0176 0.060732,-0.0506 0.094494,-0.0709 0.00675,-0.004 0.016153,0.002 0.023625,0 0.016703,-0.006 0.030543,-0.0181 0.047247,-0.0236 0.030801,-0.0103 0.062996,-0.0158 0.094494,-0.0236 0.031498,-0.008 0.062277,-0.0196 0.094494,-0.0236 0.031255,-0.004 0.063425,0.005 0.094494,0 0.064051,-0.0107 0.124706,-0.0381 0.1889882,-0.0472 0.1016391,-0.0145 0.2049795,-0.0131 0.3071055,-0.0236 0.1262986,-0.0131 0.2514082,-0.0371 0.3779764,-0.0472 0.070645,-0.006 0.1420603,0.007 0.2126115,0 0.6982067,-0.0665 -0.2197092,-0.0429 0.7087057,-0.0945 0.141522,-0.008 0.283482,0 0.425223,0 h 0.377976 c 0.370858,0 0.14105,-0.0238 0.425223,0.0472 0.0076,0.002 0.01658,-0.004 0.02362,0 0.01,0.005 0.01436,0.0174 0.02362,0.0236 0.01465,0.01 0.0348,0.0112 0.04725,0.0236 0.01245,0.0125 0.01386,0.0326 0.02362,0.0472 0.02184,0.0328 0.05175,0.0601 0.07087,0.0945 0.0206,0.0371 0.02828,0.0802 0.04725,0.11812 0.02053,0.0411 0.04809,0.0782 0.07087,0.11812 0.0087,0.0153 0.01386,0.0326 0.02363,0.0473 0.106176,0.15926 0.03633,0.0447 0.212611,0.18898 0.0431,0.0353 0.07875,0.0788 0.118118,0.11812 0.0079,0.008 0.01456,0.0172 0.02362,0.0236 0.04621,0.033 0.0974,0.059 0.141741,0.0945 0.03478,0.0278 0.05847,0.0683 0.0945,0.0945 0.122138,0.0888 0.270847,0.13907 0.401599,0.21262 0.08004,0.045 0.160732,0.0895 0.236235,0.14174 0.02747,0.019 0.04046,0.057 0.07087,0.0709 0.05911,0.0269 0.126792,0.0286 0.188988,0.0473 0.0954,0.0286 0.19265,0.0536 0.283482,0.0945 0.06775,0.0305 0.123771,0.0825 0.188988,0.11812 0.02186,0.0119 0.04925,0.0113 0.07087,0.0236 0.03419,0.0195 0.06008,0.0518 0.09449,0.0709 0.03707,0.0206 0.07875,0.0315 0.118117,0.0473 0.04899,0.0196 0.115679,0.0425 0.165365,0.0709 0.314521,0.17973 -0.06783,-0.045 0.212611,0.16536 0.02817,0.0211 0.0643,0.0291 0.0945,0.0473 0.0095,0.006 0.01471,0.0169 0.02362,0.0236 0.02271,0.017 0.05079,0.0272 0.07087,0.0472 0.02784,0.0278 0.04494,0.0649 0.07087,0.0945 0.0171,0.0195 0.168349,0.16009 0.188988,0.18898 0.02047,0.0287 0.02525,0.067 0.04725,0.0945 0.011,0.0137 0.0348,0.0112 0.04725,0.0236 0.103177,0.10318 0.04327,0.0767 0.118118,0.18899 0.01235,0.0185 0.03489,0.0287 0.04725,0.0473 0.0044,0.007 -0.0056,0.018 0,0.0236 0.02008,0.0201 0.05383,0.0245 0.07087,0.0472 0.0094,0.0126 -0.007,0.0332 0,0.0472 0.0035,0.007 0.01806,-0.006 0.02362,0 0.0056,0.006 -0.0035,0.0166 0,0.0236 0.005,0.01 0.01864,0.0137 0.02362,0.0236 0.0036,0.007 0,0.0602 0,0.0709 0,0.0236 0.01056,0.0498 0,0.0709 -0.0035,0.007 -0.01806,-0.006 -0.02362,0 -0.01245,0.0125 -0.01117,0.0348 -0.02362,0.0472 -0.02008,0.0201 -0.0508,0.0272 -0.07087,0.0473 -0.01245,0.0125 -0.01386,0.0326 -0.02362,0.0473 -0.0062,0.009 -0.01575,0.0157 -0.02363,0.0236 -0.01575,0.0236 -0.03264,0.0465 -0.04725,0.0709 -0.0091,0.0151 -0.01117,0.0348 -0.02362,0.0472 -0.03565,0.0357 -0.09764,0.0484 -0.118118,0.0945 -0.01631,0.0367 0.02363,0.078 0.02363,0.11812 0,0.0414 -0.05458,0.0155 -0.07087,0.0236 -0.01,0.005 -0.01366,0.0186 -0.02363,0.0236 -0.0072,0.004 -0.06023,0 -0.07087,0"
       id="path2613"
       inkscape:connector-curvature="0"
       sodipodi:nodetypes="csccccccccscccscsccccccssccscsccccccccccccccccccccccccccccccccccccccscsccscsccssccsscccccccccccccsscscccccccccccccccccccccccscscccccccccccccccssccccccccccccccccccccccccccccccccccccscscscccccccccsccc" />
  </g>
  <g
     inkscape:groupmode="layer"
     id="layer4"
     inkscape:label="Highest">
    <path
       style="fill:#393939;stroke:none;stroke-width:0.26458335px;stroke-linecap:butt;stroke-linejoin:miter;stroke-opacity:1;fill-opacity:1"
       d="m 5.9058782,14.051265 c -0.031498,-0.0315 -0.058858,-0.06777 -0.094494,-0.09449 -0.028173,-0.02113 -0.064297,-0.02913 -0.094494,-0.04725 -0.00955,-0.0057 -0.015748,-0.01575 -0.023625,-0.02362 -0.039372,-0.03937 -0.078745,-0.07874 -0.1181174,-0.118118 -0.00787,-0.0079 -0.015748,-0.01575 -0.023625,-0.02362 -0.00787,-0.0079 -0.018643,-0.01366 -0.023625,-0.02363 -0.00352,-0.007 0.00352,-0.01658 0,-0.02362 -0.00498,-0.01 -0.015748,-0.01575 -0.023625,-0.02363 -0.02,-0.02 -0.086027,-0.07756 -0.094494,-0.09449 -0.00704,-0.01409 0.00498,-0.03231 0,-0.04725 -0.00352,-0.01056 -0.018643,-0.01366 -0.023625,-0.02362 -0.011136,-0.02227 -0.00868,-0.05095 -0.023625,-0.07087 -0.010565,-0.01409 -0.032596,-0.01386 -0.047247,-0.02362 -0.014518,-0.0097 -0.091903,-0.09018 -0.094494,-0.09449 -0.012811,-0.02135 -0.00981,-0.05015 -0.023625,-0.07087 -0.00437,-0.0066 -0.017325,0.0047 -0.023625,0 -0.026727,-0.02004 -0.047247,-0.04725 -0.07087,-0.07087 -0.015748,-0.01575 -0.035788,-0.02815 -0.047247,-0.04725 -0.012811,-0.02135 -0.014375,-0.04775 -0.023625,-0.07087 -0.00654,-0.01635 -0.015748,-0.0315 -0.023625,-0.04725 -0.015748,-0.02362 -0.036063,-0.04477 -0.047247,-0.07087 -0.01279,-0.02984 -0.011565,-0.06435 -0.023625,-0.09449 -0.00414,-0.01034 -0.016941,-0.01471 -0.023625,-0.02362 -0.017034,-0.02271 -0.03455,-0.04548 -0.047247,-0.07087 -0.011136,-0.02227 -0.014375,-0.04775 -0.023625,-0.07087 -0.00654,-0.01635 -0.018055,-0.03054 -0.023625,-0.04725 -0.00249,-0.0075 0.00249,-0.01615 0,-0.02362 -0.00557,-0.0167 -0.019354,-0.03017 -0.023625,-0.04725 -0.00392,-0.01567 0,-0.121699 0,-0.141741 0,-0.0079 0,-0.01575 0,-0.02363 0,-0.0079 0.00352,-0.01658 0,-0.02362 -0.00498,-0.01 -0.018643,-0.01366 -0.023625,-0.02362 -0.00352,-0.007 0,-0.01575 0,-0.02362 0,-0.0079 0,-0.01575 0,-0.02363 0,-0.03937 0,-0.07874 0,-0.118118 0,-0.01575 0.00704,-0.03316 0,-0.04725 -0.00352,-0.007 -0.0201,0.007 -0.023625,0 -0.00742,-0.01485 0.00742,-0.07965 0,-0.09449 -0.00498,-0.01 -0.018642,-0.01366 -0.023625,-0.02362 -0.00101,-0.002 -0.00101,-0.09248 0,-0.09449 0.00314,-0.0063 0.064598,-0.06774 0.07087,-0.07087 0.00704,-0.0035 0.016153,0.0025 0.023625,0 0.016703,-0.0056 0.032596,-0.01386 0.047247,-0.02362 0.00927,-0.0062 0.01306,-0.0201 0.023625,-0.02363 0.014941,-0.005 0.032306,0.005 0.047247,0 0.010565,-0.0035 0.012819,-0.02092 0.023625,-0.02362 0.022918,-0.0057 0.047706,0.0046 0.07087,0 0.017267,-0.0035 0.029981,-0.02017 0.047247,-0.02362 0.023164,-0.0046 0.047952,0.0057 0.070871,0 0.010803,-0.0027 0.013663,-0.01864 0.023625,-0.02362 0.00704,-0.0035 0.016581,0.0035 0.023625,0 0.00996,-0.005 0.014359,-0.01745 0.023625,-0.02362 0.021579,-0.01439 0.057329,-0.02016 0.07087,-0.04725 0.00704,-0.01409 -0.011136,-0.03611 0,-0.04725 0.00557,-0.0056 0.020103,0.007 0.023625,0 0.00704,-0.01409 0,-0.0315 0,-0.04725 0,-0.0079 -0.00557,-0.01806 0,-0.02362 0.00557,-0.0056 0.018055,0.0056 0.023625,0 0.00557,-0.0056 -0.00704,-0.0201 0,-0.02363 0.026575,-0.01329 0.1415171,0.02358 0.1417412,0.02363 0.039196,0.0087 0.078275,0.01864 0.1181174,0.02362 0.023442,0.0029 0.047247,0 0.07087,0 0.047247,0.01575 0.093214,0.03605 0.1417413,0.04725 0.054255,0.01252 0.1110094,0.01154 0.1653646,0.02362 0.017187,0.0038 0.031498,0.01575 0.047247,0.02363 0.041997,0.021 0.069465,0.03752 0.1181177,0.04725 0.015444,0.0031 0.032306,-0.005 0.047247,0 0.010565,0.0035 0.013285,0.01949 0.023625,0.02362 0.030145,0.01206 0.063693,0.01336 0.094494,0.02363 0.1466337,0.04888 -0.078513,-0.0019 0.1181174,0.04725 0.00764,0.0019 0.015748,0 0.023625,0 0.031498,0 0.062996,0 0.094494,0 0.055121,0 0.1102431,0 0.1653646,0 0.062996,0 0.1259919,0 0.1889881,0 0.019018,0 0.079667,0.0049 0.094494,0 0.016703,-0.0056 0.030165,-0.01935 0.047247,-0.02363 0.081824,-0.02046 0.014187,0.02991 0.094494,-0.02362 0.00927,-0.0062 0.015748,-0.01575 0.023625,-0.02362 0.00787,-0.0079 0.020103,-0.01306 0.023625,-0.02363 0.029192,-0.08757 -0.031778,-0.01547 0.023625,-0.07087 0.015748,-0.01575 0.031498,-0.0315 0.047247,-0.04725 0.00787,-0.0079 0.01306,-0.0201 0.023625,-0.02362 0.014941,-0.005 0.032306,0.005 0.047247,0 0.010565,-0.0035 0.013663,-0.01864 0.023625,-0.02363 0.00621,-0.0031 0.082141,0 0.094494,0 0.031498,0 0.062996,0 0.094494,0 0.015748,0 0.031804,-0.0031 0.047247,0 0.024418,0.0049 0.04622,0.0201 0.070871,0.02363 0.031181,0.0045 0.063936,-0.0076 0.094494,0 0.034165,0.0085 0.061797,0.03417 0.094494,0.04725 0.00731,0.0029 0.015902,-0.0015 0.023625,0 0.031837,0.0064 0.062353,0.01903 0.094494,0.02362 0.023387,0.0033 0.047706,-0.0046 0.07087,0 0.017267,0.0035 0.030165,0.01935 0.047247,0.02363 0.01528,0.0038 0.031713,-0.0026 0.047247,0 0.1325637,0.02209 0.053023,0.01916 0.1653646,0.04725 0.00764,0.0019 0.015983,-0.0019 0.023625,0 0.024159,0.006 0.046453,0.01874 0.07087,0.02362 0.030886,0.0062 0.064612,-0.01 0.094494,0 0.010565,0.0035 0.015748,0.01575 0.023622,0.02362 0.023625,0 0.047706,-0.0046 0.07087,0 0.017267,0.0035 0.030543,0.01806 0.047247,0.02362 0.00747,0.0025 0.018055,-0.0056 0.023625,0 0.00557,0.0056 -0.00704,0.0201 0,0.02362 0.014086,0.007 0.032306,-0.005 0.047247,0 0.010565,0.0035 0.01306,0.0201 0.023625,0.02362 0.02241,0.0075 0.048459,-0.0075 0.070871,0 0.011758,0.0039 0.082735,0.04333 0.094494,0.04725 0.00747,0.0025 0.015856,-0.0013 0.023622,0 0.039606,0.0066 0.078275,0.01864 0.1181177,0.02362 0.04352,0.0054 0.1182463,0 0.1653646,0 0.039372,0 0.078745,0 0.1181177,0 0.00787,0 0.016579,-0.0035 0.023622,0 0.00996,0.005 0.013663,0.01864 0.023625,0.02363 0.00937,0.0047 0.066041,-0.0048 0.07087,0 0.00557,0.0056 -0.00704,0.0201 0,0.02362 0.014086,0.007 0.031968,-0.0038 0.047247,0 0.017081,0.0043 0.030542,0.01806 0.047247,0.02362 0.00747,0.0025 0.015748,0 0.023625,0 0.023622,0.0079 0.048598,0.01249 0.07087,0.02363 0.025395,0.0127 0.046525,0.03264 0.07087,0.04725 0.0151,0.0091 0.032596,0.01386 0.047247,0.02363 0.032102,0.0214 0.1231049,0.09699 0.1653646,0.118117 0.022273,0.01114 0.048598,0.01249 0.070871,0.02362 0.019921,0.01 0.028715,0.03489 0.047247,0.04725 0.0044,0.0029 0.09298,0.04573 0.09449,0.04725 0.0056,0.0056 -0.0035,0.01658 0,0.02362 0.005,0.01 0.01575,0.01575 0.02362,0.02362 0.0079,0.01575 0.01708,0.0309 0.02362,0.04725 0.0092,0.02312 0.0098,0.05015 0.02362,0.07087 0.0044,0.0066 0.01806,-0.0056 0.02362,0 0.0015,0.0015 0.04431,0.09009 0.04725,0.09449 0.0062,0.0093 0.01864,0.01366 0.02362,0.02363 0.0035,0.007 -0.0035,0.01658 0,0.02362 0.005,0.01 0.01575,0.01575 0.02363,0.02362 0.01845,0.01845 0.05728,0.05049 0.07087,0.07087 0.0098,0.01465 0.01386,0.0326 0.02362,0.04725 0.01853,0.0278 0.05082,0.04414 0.07087,0.07087 0.02374,0.03166 0.03364,0.08409 0.04725,0.118117 0.0065,0.01635 0.01935,0.03017 0.02362,0.04725 0.0038,0.01528 -0.0038,0.03197 0,0.04725 0.0043,0.01708 0.01935,0.03017 0.02362,0.04725 0.0038,0.01528 -0.005,0.03231 0,0.04725 0.0035,0.01056 0.0201,0.01306 0.02363,0.02363 0.005,0.01494 -0.007,0.03316 0,0.04725 0.0035,0.007 0.0201,-0.007 0.02362,0 0.007,0.01409 -0.005,0.03231 0,0.04725 0.0035,0.01056 0.01745,0.01436 0.02362,0.02362 0.0098,0.01465 0.01386,0.0326 0.02362,0.04725 0.0062,0.0093 0.01575,0.01575 0.02362,0.02362 0.02362,0.02363 0.04725,0.04725 0.07087,0.07087 0.01575,0.01575 0.03489,0.02872 0.04725,0.04725 0.01439,0.02158 0.02016,0.05733 0.04725,0.07087 0.007,0.0035 0.01806,-0.0056 0.02363,0 0.04888,0.04888 -0.07469,-0.0019 0.02362,0.04725 0.007,0.0035 0.01658,-0.0035 0.02362,0 0.01992,0.01 0.02943,0.03388 0.04725,0.04725 0.0025,0.0019 0.14111,0.09386 0.141741,0.09449 0.01245,0.01245 0.0095,0.03668 0.02362,0.04725 0.01992,0.01494 0.0486,0.01249 0.07087,0.02363 0.01,0.005 0.01575,0.01575 0.02362,0.02362 0.0079,0.0079 0.01864,0.01366 0.02362,0.02362 0.0035,0.007 -0.0035,0.01658 0,0.02362 0.005,0.01 0.01864,0.01366 0.02363,0.02363 0.0035,0.007 0,0.01575 0,0.02362 0,0.0079 0,0.01575 0,0.02362 0,0.0079 0,0.01575 0,0.02362 0,0.0079 0.0035,0.01658 0,0.02362 -0.005,0.01 -0.01575,0.01575 -0.02363,0.02362 -0.01575,0.01575 -0.0315,0.0315 -0.04725,0.04725 -0.0079,0.0079 -0.01864,0.01366 -0.02362,0.02363 -0.0035,0.007 0.0056,0.01805 0,0.02362 -0.0056,0.0056 -0.01658,-0.0035 -0.02363,0 -0.01992,0.01 -0.02733,0.03729 -0.04725,0.04725 -0.007,0.0035 -0.01658,-0.0035 -0.02362,0 -0.01,0.005 -0.01366,0.01864 -0.02362,0.02362 -0.007,0.0035 -0.01575,0 -0.02362,0 -0.01575,0 -0.03197,-0.0038 -0.04725,0 -0.01708,0.0043 -0.03054,0.01806 -0.04725,0.02362 -0.0075,0.0025 -0.01658,-0.0035 -0.02362,0 -0.01,0.005 -0.01366,0.01864 -0.02362,0.02362 -0.007,0.0035 -0.01575,0 -0.02362,0 -0.0079,0 -0.01575,0 -0.02362,0 -0.0079,0 -0.02363,0.0079 -0.02363,0 0,-0.0079 0.01806,-0.0056 0.02363,0 0.0056,0.0056 -0.0056,0.01806 0,0.02363 0.0056,0.0056 0.01806,-0.0056 0.02362,0 0.0056,0.0056 0.0056,0.01806 0,0.02362 -0.0056,0.0056 -0.01658,-0.0035 -0.02362,0 -0.01,0.005 -0.01282,0.02092 -0.02363,0.02363 -0.132547,0.03314 -0.0097,-0.0424 -0.141741,0.02362 -0.02539,0.0127 -0.04393,0.03827 -0.07087,0.04725 -0.02241,0.0075 -0.04725,0 -0.07087,0 -0.0315,0 -0.063,0 -0.09449,0 -0.07874,0 -0.15749,0 -0.236235,0 -0.02363,0 -0.04743,-0.0029 -0.07087,0 -0.03984,0.005 -0.07828,0.01864 -0.118118,0.02363 -0.031255,0.0039 -0.062996,0 -0.094494,0 -0.078745,0 -0.1574901,0 -0.2362351,0 -0.035829,0 -0.1572705,0.0053 -0.1889882,0 -0.049125,-0.0082 -0.092906,-0.03748 -0.141741,-0.04725 -0.015444,-0.0031 -0.031968,0.0038 -0.047247,0 -0.017082,-0.0043 -0.029981,-0.02017 -0.047247,-0.02362 -0.023164,-0.0046 -0.047952,0.0057 -0.07087,0 -0.010803,-0.0027 -0.01306,-0.0201 -0.023625,-0.02363 -0.014941,-0.005 -0.031498,0 -0.047247,0 -0.023625,0 -0.047247,0 -0.070871,0 -0.062996,0 -0.1259922,0 -0.1889882,0 -0.039373,0 -0.079281,0.0065 -0.1181177,0 -0.010985,-0.0018 -0.012573,-0.02224 -0.023622,-0.02362 -0.054696,-0.0068 -0.1102431,0 -0.1653646,0 -0.062996,-0.01575 -0.124706,-0.03806 -0.1889881,-0.04725 -0.070158,-0.01002 -0.141741,0 -0.2126115,0 -0.00398,0 -0.160658,-0.0024 -0.1653646,0 -0.00704,0.0035 0.00249,0.01615 0,0.02363 -0.00557,0.0167 -0.013856,0.0326 -0.023625,0.04725 -0.00618,0.0093 -0.020103,0.01306 -0.023625,0.02363 -0.00897,0.02692 0.022072,0.106693 -0.023625,0.118117 -0.022918,0.0057 -0.047247,0 -0.070871,0 -0.078745,0 -0.15749,0 -0.2362351,0 -0.023625,0 -0.047952,-0.0057 -0.07087,0 -0.041139,0.01028 -0.076438,0.03943 -0.1181176,0.04725 -0.2008164,0.03765 -0.4106958,0.02362 -0.6142112,0.02362 -0.062996,0 -0.1259922,0 -0.1889882,0 -0.015748,0 -0.031498,0 -0.047247,0 -0.015748,0 -0.031968,0.0038 -0.047247,0 -0.017081,-0.0043 -0.030543,-0.01806 -0.047247,-0.02362 -0.014941,-0.005 -0.031498,0 -0.047247,0 -0.023625,0 -0.047247,0 -0.07087,0 -0.00787,0 -0.016153,0.0025 -0.023625,0 -0.016703,-0.0056 -0.030542,-0.01806 -0.047247,-0.02363 -0.00747,-0.0025 -0.015748,0 -0.023625,0 -0.024731,0 -0.1225304,0.0048 -0.141741,0 -0.017082,-0.0043 -0.030165,-0.01935 -0.047247,-0.02362 -0.020108,-0.005 -0.1045562,0.0068 -0.1181176,0 -0.00996,-0.005 -0.013663,-0.01864 -0.023625,-0.02362 -0.00704,-0.0035 -0.016581,0.0035 -0.023625,0 -0.052233,-0.02612 -0.00733,-0.01466 -0.023625,-0.04725 -0.00498,-0.01 -0.018642,-0.01366 -0.023625,-0.02362 -0.00945,-0.0189 0.00945,-0.05197 0,-0.07087 -0.00498,-0.01 -0.018643,-0.01366 -0.023625,-0.02362 -0.00704,-0.01409 0.00704,-0.03316 0,-0.04725 -0.00498,-0.01 -0.023625,-0.01249 -0.023625,-0.02362 0,-0.03857 0.084343,-0.107967 0.094494,-0.118118 z"
       id="path2624"
       inkscape:connector-curvature="0" />
    <path
       style="fill:#393939;stroke:none;stroke-width:0.26458335px;stroke-linecap:butt;stroke-linejoin:miter;stroke-opacity:1;fill-opacity:1"
       d="m 5.3152904,13.389807 c 0.00973,-0.170113 0.097196,-0.02497 0.141741,-0.04725 0.00996,-0.005 0.014359,-0.01745 0.023625,-0.02362 0.01465,-0.0098 0.034796,-0.01117 0.047247,-0.02362 0.012451,-0.01245 0.011173,-0.0348 0.023625,-0.04725 0.00557,-0.0056 0.016153,0.0025 0.023625,0 0.033409,-0.01114 0.061085,-0.03611 0.094494,-0.04725 0.014827,-0.0049 0.075476,0 0.094494,0 0.055122,0 0.1102432,0 0.1653646,0 0.062996,0 0.1259922,0 0.1889882,0 0.015523,0 0.057542,-0.0044 0.070871,0 0.016703,0.0056 0.030543,0.01806 0.047247,0.02363 0.00747,0.0025 0.018055,-0.0056 0.023625,0 0.00557,0.0056 -0.00557,0.01806 0,0.02362 0.00557,0.0056 0.016582,-0.0035 0.023625,0 0.00996,0.005 0.013663,0.01864 0.023625,0.02362 0.014086,0.007 0.036111,-0.01114 0.047247,0 0.00557,0.0056 -0.00557,0.01806 0,0.02363 0.011136,0.01114 0.033161,-0.007 0.047247,0 0.00996,0.005 0.013663,0.01864 0.023625,0.02362 0.00704,0.0035 0.016581,-0.0035 0.023625,0 0.00996,0.005 0.013663,0.01864 0.023625,0.02362 0.00704,0.0035 0.016581,-0.0035 0.023625,0 0.00996,0.005 0.014356,0.01745 0.023625,0.02362 0.01465,0.0098 0.032597,0.01386 0.047247,0.02362 0.00927,0.0062 0.013663,0.01864 0.023625,0.02363 0.00704,0.0035 0.016581,-0.0035 0.023625,0 0.028348,0.01417 0.042522,0.0567 0.07087,0.07087 0.00704,0.0035 0.016582,-0.0035 0.023625,0 0.00996,0.005 0.013663,0.01864 0.023625,0.02362 0.00704,0.0035 0.015748,0 0.023625,0 0.035162,0 0.030153,-0.0035 0.070871,0.02363 0.027206,0.01814 0.044685,0.05123 0.070871,0.07087 0.022715,0.01704 0.049059,0.02907 0.07087,0.04725 0.025665,0.02139 0.041864,0.0543 0.070871,0.07087 0.085882,0.04907 0.1703716,0.0037 0.2598587,0.02362 0.034377,0.0076 0.059962,0.04034 0.094494,0.04725 0.046329,0.0093 0.094494,0 0.141741,0 0.00787,0 0.015983,0.0019 0.023625,0 0.024159,-0.006 0.046453,-0.01874 0.07087,-0.02362 0.026643,-0.0053 0.087202,0 0.1181174,0 0.023625,0 0.047953,-0.0057 0.070871,0 0.017082,0.0043 0.030165,0.01935 0.047247,0.02362 0.095506,0.02388 -0.00111,-0.03374 0.094494,0.02363 0.024347,0.01461 0.044774,0.03606 0.070871,0.04725 0.029842,0.01279 0.063693,0.01336 0.094494,0.02362 0.095981,0.03199 -0.00164,0.01318 0.094494,0.07087 0.021352,0.01281 0.050949,0.0087 0.07087,0.02363 0.057546,0.04316 -0.00713,0.04368 0.047247,0.07087 0.00704,0.0035 0.016581,-0.0035 0.023625,0 0.00787,0.0079 0.015748,0.01575 0.023625,0.02363 0.00787,0.0079 0.013663,0.01864 0.023625,0.02362 0.00704,0.0035 0.015748,0 0.023625,0 0.015748,0.0079 0.032596,0.01386 0.047247,0.02363 0.00927,0.0062 0.014356,0.01745 0.023622,0.02362 0.01465,0.0098 0.033161,0.01306 0.047247,0.02362 0.017817,0.01336 0.029429,0.03388 0.047247,0.04725 0.014086,0.01056 0.032596,0.01386 0.047247,0.02362 0.00927,0.0062 0.015748,0.01575 0.023622,0.02362 0.00787,0.0079 0.018643,0.01366 0.023625,0.02363 0.00352,0.007 0,0.01575 0,0.02362 0,0.0079 0,0.01575 0,0.02362 0,0.0079 0.00557,0.01806 0,0.02363 -0.00557,0.0056 -0.016581,-0.0035 -0.023625,0 -0.019921,0.01 -0.027326,0.03729 -0.047247,0.04725 -0.00704,0.0035 -0.016581,-0.0035 -0.023625,0 -0.01992,0.01 -0.028715,0.03489 -0.047247,0.04725 -0.01465,0.0098 -0.031498,0.01575 -0.047247,0.02363 -0.015748,0.0079 -0.030165,0.01935 -0.047247,0.02362 -0.024471,0.0061 -0.067406,0 -0.094494,0 -0.062996,0 -0.1259922,0 -0.1889882,0 -0.015748,0 -0.031498,0 -0.047247,0 -0.00787,0 -0.018055,-0.0056 -0.023625,0 -0.00557,0.0056 0.00557,0.01806 0,0.02362 -0.00557,0.0056 -0.015748,0 -0.023625,0 -0.027904,0 -0.127693,0.0047 -0.141741,0 -0.010565,-0.0035 -0.013663,-0.01864 -0.023625,-0.02362 -0.00697,-0.0035 -0.1410274,0 -0.1653645,0 -0.1023684,0 -0.204737,0 -0.3071056,0 -0.015999,0 -0.1546027,-0.0036 -0.1653646,0 -0.010565,0.0035 -0.01306,0.0201 -0.023625,0.02362 -0.0061,0.002 -0.1353743,0.0016 -0.141741,0 -0.048316,-0.01208 -0.093425,-0.03517 -0.141741,-0.04725 -0.00764,-0.0019 -0.017071,0.0044 -0.023625,0 -0.018531,-0.01235 -0.031498,-0.0315 -0.047247,-0.04725 -0.023625,-0.01575 -0.046525,-0.03264 -0.070871,-0.04725 -0.0151,-0.0091 -0.030542,-0.01806 -0.047247,-0.02362 -0.014941,-0.005 -0.036111,0.01114 -0.047247,0 -0.00557,-0.0056 0.00557,-0.01806 0,-0.02363 -0.00557,-0.0056 -0.016581,0.0035 -0.023625,0 -0.00996,-0.005 -0.013663,-0.01864 -0.023625,-0.02362 -0.014086,-0.007 -0.034143,0.0087 -0.047247,0 -0.056479,-0.03765 -0.029871,-0.05471 -0.094494,-0.07087 -0.01528,-0.0038 -0.031498,0 -0.047247,0 -0.047247,0 -0.094494,0 -0.141741,0 -0.00787,0 -0.016581,0.0035 -0.023625,0 -0.00996,-0.005 -0.013663,-0.01864 -0.023625,-0.02363 -0.00704,-0.0035 -0.016581,0.0035 -0.023625,0 -0.00996,-0.005 -0.013663,-0.01864 -0.023625,-0.02362 -0.00937,-0.0047 -0.066041,0.0048 -0.07087,0 -0.00557,-0.0056 0.00557,-0.01806 0,-0.02362 -0.00557,-0.0056 -0.015748,0 -0.023625,0 -0.00787,-0.0079 -0.017447,-0.01436 -0.023625,-0.02362 -0.00977,-0.01465 -0.011173,-0.0348 -0.023625,-0.04725 -0.00557,-0.0056 -0.016581,0.0035 -0.023625,0 -0.00996,-0.005 -0.014356,-0.01745 -0.023625,-0.02362 -0.01465,-0.0098 -0.031498,-0.01575 -0.047247,-0.02362 -0.015748,-0.0079 -0.030543,-0.01806 -0.047247,-0.02363 -0.00747,-0.0025 -0.016581,0.0035 -0.023625,0 -0.028348,-0.01417 -0.042522,-0.0567 -0.07087,-0.07087 -0.00704,-0.0035 -0.018055,0.0056 -0.023625,0 -0.012451,-0.01245 -0.011173,-0.0348 -0.023625,-0.04725 -0.012451,-0.01245 -0.034796,-0.01117 -0.047247,-0.02362 -0.012451,-0.01245 -0.013856,-0.0326 -0.023625,-0.04725 -0.00618,-0.0093 -0.018642,-0.01366 -0.023625,-0.02362 -0.00352,-0.007 0.00557,-0.01806 0,-0.02363 -0.00557,-0.0056 -0.018055,0.0056 -0.023625,0 -0.00557,-0.0056 0.00557,-0.01806 0,-0.02362 -0.00557,-0.0056 -0.016581,0.0035 -0.023625,0 -0.00996,-0.005 -0.013663,-0.01864 -0.023625,-0.02362 -0.018899,-0.0095 -0.051972,0.0094 -0.07087,0 -0.00996,-0.005 -0.013663,-0.01864 -0.023625,-0.02363 -0.00704,-0.0035 -0.016581,0.0035 -0.023625,0 -0.00996,-0.005 -0.013663,-0.01864 -0.023625,-0.02362 -0.00704,-0.0035 -0.016581,0.0035 -0.023625,0 -0.00996,-0.005 -0.013663,-0.01864 -0.023625,-0.02362 -0.00704,-0.0035 -0.016581,0.0035 -0.023625,0 -0.019921,-0.01 -0.027326,-0.03729 -0.047247,-0.04725 -0.00704,-0.0035 -0.016581,0.0035 -0.023625,0 -0.00627,-0.0031 -0.067734,-0.0646 -0.07087,-0.07087 -0.00468,-0.0094 0.00483,-0.06604 0,-0.07087 -0.00557,-0.0056 -0.015748,0 -0.023625,0 0.00787,-0.0315 0.015748,-0.063 0.023625,-0.09449 z"
       id="path2626"
       inkscape:connector-curvature="0" />
  </g>
</svg>
