<svg xmlns="http://www.w3.org/2000/svg" viewBox="0 0 62.76 43.7"><defs><style>.cls-1{fill:#e8e9de;stroke-width:0.25px;}.cls-1,.cls-2{stroke:#1c1e1d;stroke-miterlimit:10;}.cls-2{fill:#5a4e42;stroke-width:0.2px;}.cls-3{fill:#1c1e1d;}</style></defs><title>DroidPlatform</title><g id="Layer_2" data-name="Layer 2"><g id="DroidPlatform"><rect class="cls-1" x="13.87" y="0.13" width="35.01" height="36.35" rx="3" ry="3"/><circle class="cls-2" cx="24.28" cy="10.65" r="4.78" transform="matrix(0.99, -0.15, 0.15, 0.99, -1.29, 3.66)"/><path class="cls-3" d="M11,16.67a13.39,13.39,0,0,1,1.32,2.71C11.39,22.31,6.93,36.61,5,41.66,4.65,42.44,5,43,6.22,43c.47,0,.36.27,0,.35a14.12,14.12,0,0,1-6.17,0s-.1-.08,0-.12c.85-.36,1.67.18,2.47-1.73L10.37,18A6.22,6.22,0,0,1,11,16.67Z"/><circle class="cls-3" cx="11.1" cy="17.49" r="2.15"/><rect class="cls-3" x="10.88" y="16.33" width="2.99" height="2.77"/><path class="cls-3" d="M51.78,16.48a13.39,13.39,0,0,0-1.32,2.71c.91,2.93,5.37,17.24,7.34,22.28.3.78,0,1.33-1.27,1.38-.47,0-.36.27,0,.35a14.12,14.12,0,0,0,6.17,0s.1-.08,0-.12c-.85-.36-1.67.18-2.47-1.73L52.39,17.78A6.22,6.22,0,0,0,51.78,16.48Z"/><circle class="cls-3" cx="51.66" cy="17.3" r="2.15"/><rect class="cls-3" x="48.88" y="16.14" width="2.99" height="2.77" transform="translate(100.76 35.05) rotate(180)"/></g></g></svg>