<svg xmlns="http://www.w3.org/2000/svg" viewBox="0 0 17.56 19.45"><defs><style>.cls-1{fill:#5a4e42;}.cls-2{fill:#e8e9de;}</style></defs><title>PrimitiveDroid</title><g id="Layer_2" data-name="Layer 2"><g id="PrimitiveDroid"><rect class="cls-1" x="0.35" y="6.73" width="16.75" height="5.92" rx="1.56" ry="1.56"/><path class="cls-2" d="M0,9.31A21.74,21.74,0,0,1,8.16,8a40.64,40.64,0,0,1,9.41,1.56C16.68,4.1,13.07,0,8.76,0,4.69,0,1.25,3.65.13,8.66Z"/><path class="cls-2" d="M8.36,12.43a30.81,30.81,0,0,0,9.21-2l0,.38a8.51,8.51,0,0,1-8.76,8.61c-4.22,0-8.22-3.7-8.78-8.79A16.78,16.78,0,0,0,8.36,12.43Z"/></g></g></svg>
