<svg xmlns="http://www.w3.org/2000/svg" viewBox="0 0 62.07 37.44"><defs><style>.cls-1,.cls-2,.cls-3,.cls-5,.cls-6,.cls-7{fill:none;}.cls-1,.cls-2,.cls-3,.cls-4,.cls-5,.cls-6,.cls-7,.cls-8{stroke:#1c1e1d;stroke-miterlimit:10;}.cls-1,.cls-5{stroke-width:2px;}.cls-3,.cls-5,.cls-6{stroke-linecap:round;}.cls-3{stroke-width:1.5px;}.cls-4{fill:#e8e9de;}.cls-4,.cls-7{stroke-width:0.25px;}.cls-8{fill:#5a4e42;stroke-width:0.2px;}</style></defs><title>Rover</title><g id="Layer_2" data-name="Layer 2"><g id="Rover"><circle class="cls-1" cx="7.39" cy="30.04" r="6.39"/><circle class="cls-2" cx="7.39" cy="30.04" r="1.83"/><line class="cls-3" x1="7.39" y1="30.04" x2="18.92" y2="16.49"/><circle class="cls-1" cx="54.68" cy="30.04" r="6.39"/><circle class="cls-2" cx="54.68" cy="30.04" r="1.83"/><line class="cls-3" x1="54.68" y1="30.04" x2="43.15" y2="16.49"/><rect class="cls-4" x="15.22" y="12.58" width="31.41" height="9.29" rx="0.7" ry="0.7"/><polyline class="cls-4" points="16.36 21.87 20.49 26.03 41.45 26.03 45.48 21.87"/><line class="cls-4" x1="24.6" y1="21.87" x2="20.49" y2="26.03"/><line class="cls-4" x1="37.7" y1="21.87" x2="41.45" y2="26.03"/><line class="cls-5" x1="25.21" y1="24.91" x2="35.21" y2="23.65"/><circle class="cls-5" cx="34.5" cy="22.5" r="1.19"/><line class="cls-5" x1="25.36" y1="20.08" x2="35.24" y2="22.07"/><line class="cls-6" x1="23.96" y1="23.27" x2="24.77" y2="27.52"/><rect class="cls-7" x="21.48" y="13.32" width="19.18" height="4.87"/><line class="cls-7" x1="21.48" y1="17.84" x2="24.68" y2="13.88"/><line class="cls-7" x1="23.48" y1="17.83" x2="26.68" y2="13.88"/><line class="cls-7" x1="25.48" y1="17.83" x2="28.68" y2="13.88"/><line class="cls-7" x1="27.48" y1="17.83" x2="30.67" y2="13.87"/><line class="cls-7" x1="29.47" y1="17.82" x2="32.67" y2="13.87"/><line class="cls-7" x1="31.47" y1="17.82" x2="34.67" y2="13.86"/><line class="cls-7" x1="33.47" y1="17.81" x2="36.67" y2="13.86"/><line class="cls-7" x1="35.47" y1="17.81" x2="38.67" y2="13.86"/><line class="cls-7" x1="37.47" y1="17.81" x2="40.66" y2="13.85"/><path class="cls-4" d="M23.7,9.28H37.89a.26.26,0,0,1,.26.26v3a0,0,0,0,1,0,0H23.33a0,0,0,0,1,0,0V9.65A.36.36,0,0,1,23.7,9.28Z"/><rect class="cls-4" x="29.47" y="2.74" width="1.45" height="6.55"/><rect class="cls-8" x="29.08" y="0.1" width="4" height="2.64" rx="0.31" ry="0.31"/></g></g></svg>