<svg xmlns="http://www.w3.org/2000/svg" viewBox="0 0 100.11 60.45"><defs><style>.cls-1,.cls-2,.cls-3,.cls-5,.cls-6,.cls-7{fill:none;}.cls-1,.cls-2,.cls-3,.cls-4,.cls-5,.cls-6,.cls-7,.cls-8{stroke:#1c1e1d;stroke-miterlimit:10;}.cls-1,.cls-5{stroke-width:2px;}.cls-3,.cls-5,.cls-6{stroke-linecap:round;}.cls-3{stroke-width:1.5px;}.cls-4{fill:#e8e9de;}.cls-4,.cls-7{stroke-width:0.25px;}.cls-8{fill:#5a4e42;stroke-width:0.2px;}</style></defs><title>Rover</title><g id="Layer_2" data-name="Layer 2"><g id="Rover"><circle class="cls-1" cx="11.44" cy="49.01" r="10.44"/><circle class="cls-2" cx="11.44" cy="49.01" r="2.98"/><line class="cls-3" x1="11.44" y1="49.01" x2="30.27" y2="26.87"/><circle class="cls-1" cx="88.67" cy="49.01" r="10.44"/><circle class="cls-2" cx="88.67" cy="49.01" r="2.98"/><line class="cls-3" x1="88.67" y1="49.01" x2="69.85" y2="26.87"/><rect class="cls-4" x="24.22" y="20.49" width="51.3" height="15.17" rx="0.7" ry="0.7"/><polyline class="cls-4" points="26.08 35.66 32.84 42.45 67.07 42.45 73.66 35.66"/><line class="cls-4" x1="39.55" y1="35.66" x2="32.84" y2="42.45"/><line class="cls-4" x1="60.94" y1="35.66" x2="67.07" y2="42.45"/><line class="cls-5" x1="40.55" y1="40.63" x2="55.71" y2="37.6"/><circle class="cls-5" cx="55.71" cy="36.69" r="1.94"/><line class="cls-5" x1="40.79" y1="32.73" x2="56.08" y2="36.69"/><line class="cls-6" x1="38.95" y1="37.03" x2="40.28" y2="43.97"/><rect class="cls-7" x="34.45" y="21.69" width="31.33" height="7.96"/><line class="cls-7" x1="34.45" y1="29.07" x2="39.68" y2="22.61"/><line class="cls-7" x1="37.72" y1="29.06" x2="42.94" y2="22.61"/><line class="cls-7" x1="40.98" y1="29.06" x2="46.2" y2="22.6"/><line class="cls-7" x1="44.24" y1="29.05" x2="49.47" y2="22.59"/><line class="cls-7" x1="47.51" y1="29.04" x2="52.73" y2="22.59"/><line class="cls-7" x1="50.77" y1="29.04" x2="55.99" y2="22.58"/><line class="cls-7" x1="54.03" y1="29.03" x2="59.26" y2="22.57"/><line class="cls-7" x1="57.3" y1="29.03" x2="62.52" y2="22.57"/><line class="cls-7" x1="60.56" y1="29.02" x2="65.78" y2="22.56"/><path class="cls-4" d="M37.84,15.1H61.42a.26.26,0,0,1,.26.26v5.12a0,0,0,0,1,0,0H37.48a0,0,0,0,1,0,0v-5A.36.36,0,0,1,37.84,15.1Z"/><rect class="cls-4" x="47.51" y="4.41" width="2.36" height="10.69"/><rect class="cls-8" x="46.86" y="0.1" width="6.53" height="4.31" rx="0.31" ry="0.31"/></g></g></svg>
