<?xml version="1.0" encoding="UTF-8" standalone="no"?>
<svg
   xmlns:dc="http://purl.org/dc/elements/1.1/"
   xmlns:cc="http://creativecommons.org/ns#"
   xmlns:rdf="http://www.w3.org/1999/02/22-rdf-syntax-ns#"
   xmlns:svg="http://www.w3.org/2000/svg"
   xmlns="http://www.w3.org/2000/svg"
   xmlns:sodipodi="http://sodipodi.sourceforge.net/DTD/sodipodi-0.dtd"
   xmlns:inkscape="http://www.inkscape.org/namespaces/inkscape"
   viewBox="0 0 120 92.25"
   version="1.1"
   id="svg1255"
   sodipodi:docname="SpaceModule.svg"
   inkscape:export-filename="/home/antonio/gd_moon_colony_defender/assets/elements/SpaceModule.png"
   inkscape:export-xdpi="96.199997"
   inkscape:export-ydpi="96.199997"
   inkscape:version="0.92.5 (2060ec1f9f, 2020-04-08)">
  <metadata
     id="metadata1259">
    <rdf:RDF>
      <cc:Work
         rdf:about="">
        <dc:format>image/svg+xml</dc:format>
        <dc:type
           rdf:resource="http://purl.org/dc/dcmitype/StillImage" />
      </cc:Work>
    </rdf:RDF>
  </metadata>
  <sodipodi:namedview
     pagecolor="#ffffff"
     bordercolor="#666666"
     borderopacity="1"
     objecttolerance="10"
     gridtolerance="10"
     guidetolerance="10"
     inkscape:pageopacity="0"
     inkscape:pageshadow="2"
     inkscape:window-width="870"
     inkscape:window-height="480"
     id="namedview1257"
     showgrid="false"
     inkscape:zoom="2.5582656"
     inkscape:cx="60"
     inkscape:cy="46.125"
     inkscape:window-x="743"
     inkscape:window-y="185"
     inkscape:window-maximized="0"
     inkscape:current-layer="svg1255" />
  <defs
     id="defs1223">
    <style
       id="style1221">.cls-1{fill:#e8e9de;stroke-width:0.25px;}.cls-1,.cls-4{stroke:#1c1e1d;stroke-miterlimit:10;}.cls-2{fill:#1c1e1d;}.cls-3,.cls-4{fill:#5a4e42;}.cls-4{stroke-width:0.2px;}</style>
  </defs>
  <title
     id="title1225">SpaceModule</title>
  <g
     id="Layer_2"
     data-name="Layer 2">
    <g
       id="SpaceModule">
      <rect
         class="cls-1"
         x="32.76"
         y="0.13"
         width="54.48"
         height="54.48"
         rx="26.08"
         ry="26.08"
         id="rect1227" />
      <path
         class="cls-2"
         d="M13.57,91.75c10.59-1.11-.76-2.63-.76-2.63L32.09,60.67V58H27.37L5.5,89.13S1.22,89.08.15,90.27,3.73,92.79,13.57,91.75Z"
         id="path1229" />
      <circle
         class="cls-2"
         cx="27.37"
         cy="58.96"
         r="5.69"
         id="circle1231" />
      <path
         class="cls-2"
         d="M31.09,51.43h3a0,0,0,0,1,0,0v11a0,0,0,0,1,0,0H30.27a0,0,0,0,1,0,0V52.25A.82.82,0,0,1,31.09,51.43Z"
         id="path1233" />
      <path
         class="cls-2"
         d="M106.43,91.75c-10.59-1.11.76-2.63.76-2.63L87.91,60.67V58h4.72L114.5,89.13s4.29-.05,5.35,1.14S116.27,92.79,106.43,91.75Z"
         id="path1235" />
      <circle
         class="cls-2"
         cx="92.63"
         cy="58.96"
         r="5.69"
         id="circle1237" />
      <path
         class="cls-2"
         d="M85.89,51.43h3.83a0,0,0,0,1,0,0v11a0,0,0,0,1,0,0h-3a.82.82,0,0,1-.82-.82V51.43A0,0,0,0,1,85.89,51.43Z"
         transform="translate(175.62 113.85) rotate(180)"
         id="path1239" />
      <path
         class="cls-3"
         d="M54.07,35.52s.18-6.27.45-16.34S42.19,5.93,42.19,5.93s-7.4,6.48-8.64,13.52a46.39,46.39,0,0,0-.7,11.62c-.06,2.22.68,3.63,1.22,6s19.82,2.2,19.82,2.2Z"
         id="path1241" />
      <path
         class="cls-1"
         d="M82.21,76h0c-8.49,1.13-34.34,1.21-45.13-.95h0c-3.08,0-3-2.09-3-5.16V40.4c0-3.08-.58-5.57,2.5-5.57h0c6.47.56,33.34,1.43,46.79,0h0c3.08,0,2.5,2.5,2.5,5.57V69.89C85.89,73,85.28,76,82.21,76Z"
         id="path1243" />
      <path
         class="cls-1"
         d="M51.66,49.48H67.24a2.36,2.36,0,0,1,2.36,2.36v10.1a1,1,0,0,1-1,1H50.26a1,1,0,0,1-1-1V51.84A2.36,2.36,0,0,1,51.66,49.48Z"
         id="path1245" />
      <polygon
         class="cls-1"
         points="49.39 63.23 39.32 92.13 79.42 92.13 69.71 63.23 49.39 63.23"
         id="polygon1247" />
      <rect
         class="cls-4"
         x="52.32"
         y="52.36"
         width="14.25"
         height="3.43"
         rx="0.58"
         ry="0.58"
         id="rect1249" />
      <circle
         class="cls-2"
         cx="67.03"
         cy="59.63"
         r="1.39"
         id="circle1251" />
    </g>
  </g>
</svg>
